<?xml version="1.0" encoding="iso-8859-1"?>
<!-- Generator: Adobe Illustrator 19.0.0, SVG Export Plug-In . SVG Version: 6.00 Build 0)  -->
<svg version="1.1" id="Layer_1" xmlns="http://www.w3.org/2000/svg" xmlns:xlink="http://www.w3.org/1999/xlink" x="0px" y="0px"
	 viewBox="0 0 630 630" style="enable-background:new 0 0 630 630;" xml:space="preserve">
<g>
	<g>
		<path style="fill:#000000;" d="M503.018,332.351h-17.965c0-19.815-16.115-35.93-35.93-35.93v-17.965
			C478.846,278.456,503.018,302.628,503.018,332.351"/>
		<polygon style="fill:#000000;" points="485.053,359.298 503.018,359.298 503.018,332.351 485.053,332.351 		"/>
	</g>
	<path style="fill:#000000;" d="M458.105,332.351h-35.93v-53.895c0-9.926,8.039-17.965,17.965-17.965
		c9.926,0,17.965,8.039,17.965,17.965V332.351z"/>
	<g>
		<path style="fill:#1a1a1a;" d="M125.754,386.246c0,34.726-28.151,62.877-62.877,62.877S0,420.972,0,386.246
			s28.151-62.877,62.877-62.877S125.754,351.519,125.754,386.246"/>
		<path style="fill:#1a1a1a;" d="M512,386.246c0,34.726-28.151,62.877-62.877,62.877s-62.877-28.151-62.877-62.877
			s28.151-62.877,62.877-62.877S512,351.519,512,386.246"/>
	</g>
	<path style="fill:#000000;" d="M106.842,341.333c9.638,9.432,16.195,21.935,18.198,35.93H386.96
		c2.003-13.995,8.569-26.498,18.198-35.93H106.842z"/>
	<polygon style="fill:#1a1a1a;" points="134.737,341.333 179.649,341.333 179.649,296.421 134.737,296.421 	"/>
	<path style="fill:#000000;" d="M215.579,341.333h-35.93v-63.254c0-4.752,3.853-8.605,8.605-8.605h18.719
		c4.752,0,8.605,3.853,8.605,8.605V341.333z"/>
	
	
	
	
	
</g>
<g>
</g>
<g>
</g>
<g>
</g>
</svg>
